<?xml version="1.0" encoding="UTF-8" standalone="no"?>
<svg
   width="40.471"
   height="40.42"
   viewBox="0 0 40.471 40.42"
   version="1.1"
   id="svg3"
   sodipodi:docname="temp_special_icon.svg"
   inkscape:version="1.1 (c68e22c387, 2021-05-23)"
   xmlns:inkscape="http://www.inkscape.org/namespaces/inkscape"
   xmlns:sodipodi="http://sodipodi.sourceforge.net/DTD/sodipodi-0.dtd"
   xmlns="http://www.w3.org/2000/svg"
   xmlns:svg="http://www.w3.org/2000/svg">
  <defs
     id="defs7" />
  <sodipodi:namedview
     id="namedview5"
     pagecolor="#505050"
     bordercolor="#ffffff"
     borderopacity="1"
     inkscape:pageshadow="0"
     inkscape:pageopacity="0"
     inkscape:pagecheckerboard="1"
     showgrid="false"
     inkscape:zoom="19.272638"
     inkscape:cx="20.209999"
     inkscape:cy="20.209999"
     inkscape:window-width="1920"
     inkscape:window-height="1017"
     inkscape:window-x="-8"
     inkscape:window-y="-8"
     inkscape:window-maximized="1"
     inkscape:current-layer="svg3" />
  <path
     id="Union_2"
     data-name="Union 2"
     d="M19.01,38.94A14.3,14.3,0,0,1,16.44,36.65c-.26-.29-.61-.7-.77-.91s-.329-.42-.49-.64c-.291-.39-.651-.91-.851-1.24s-.4-.66-.59-1a30.437,30.437,0,0,1-1.41-2.73c.92.35,1.92.66,2.92.94l.17.33c.14.25.23.34.43.72s.4.69.6,1a20.638,20.638,0,0,0,1.36,1.8c.27.31.53.59.8.86a11.743,11.743,0,0,0,1.75,1.4,5.7,5.7,0,0,0,3.11,1.1,3.524,3.524,0,0,0,.8-.09,4.153,4.153,0,0,0,2-1.139,8.184,8.184,0,0,0,1.669-2.52,13.153,13.153,0,0,0,.7-1.931c.1-.36.19-.74.28-1.129.15-.71.28-1.461.37-2.25a10.423,10.423,0,0,0,.1-1.13,2.42,2.42,0,0,1,0-.28c.05-.56.05-1.12.05-1.73,0-1.031-.06-2.1-.17-3.2-.049-.52-.11-1.049-.19-1.58-.13-.95-.28-1.87-.5-2.87a35.465,35.465,0,0,0-1-3.631c-.149-.47-.31-.94-.48-1.39-.35-.95-.74-1.85-1.15-2.7-.22-.48-.45-.93-.689-1.37l-.18-.33c-.131-.24-.221-.4-.42-.72s-.4-.64-.6-.94a19.252,19.252,0,0,0-1.37-1.81c-.26-.3-.52-.59-.79-.851A11.788,11.788,0,0,0,20.26,3.3a5.653,5.653,0,0,0-3.11-1.1,3.677,3.677,0,0,0-.8.09,4.183,4.183,0,0,0-2,1.14A8.208,8.208,0,0,0,12.67,5.95a15.114,15.114,0,0,0-.69,1.931c-.1.37-.2.75-.28,1.139a21.158,21.158,0,0,0-.37,2.25,10.187,10.187,0,0,0-.1,1.13v.28c-.79.83-1.54,1.68-2.24,2.56V14.4c0-.54-.02-1.22,0-1.61s.08-.78.08-1.16c.07-.8.18-1.57.31-2.309.07-.391.15-.79.24-1.16s.19-.741.29-1.09a12,12,0,0,1,2.9-5.21A6.424,6.424,0,0,1,15.9.14,6.02,6.02,0,0,1,17.17,0a7.85,7.85,0,0,1,4.35,1.48,14.726,14.726,0,0,1,2.57,2.3c.26.28.519.59.769.9l.481.64c.29.4.66.91.86,1.24s.39.66.59,1q.749,1.291,1.409,2.73c.211.43.41.95.61,1.43q.531,1.38,1,2.85c.15.46.26.83.43,1.46s.33,1.28.47,1.94a2.877,2.877,0,0,1,.131.64c.11.55.21,1.1.3,1.64.18,1.12.31,2.22.38,3.3,0,.58,0,1.149.021,1.63v.84c0,.55.02,1.22,0,1.61s-.08.78-.08,1.16c-.07.8-.18,1.57-.311,2.31-.08.39-.17.789-.25,1.159s-.18.741-.28,1.1a12.125,12.125,0,0,1-2.9,5.21,6.332,6.332,0,0,1-3.1,1.71,6.032,6.032,0,0,1-1.27.14A7.842,7.842,0,0,1,19.01,38.94ZM8.02,36.3a6,6,0,0,1-3.79-3.79,8.486,8.486,0,0,1-.45-2.839A13.993,13.993,0,0,1,4.33,26c.6.46,1.24.9,1.931,1.33a11.375,11.375,0,0,0-.281,2.34,6.157,6.157,0,0,0,.33,2.11,3.882,3.882,0,0,0,2.44,2.4,6.412,6.412,0,0,0,2.11.319,10.7,10.7,0,0,0,2.35-.28c.31.56.71,1.1,1.08,1.661l.25.329a14.073,14.073,0,0,1-3.68.54h-.1A8.534,8.534,0,0,1,8.02,36.3Zm9.45-3.62.6-.3.72-.4c1.12.22,2.24.391,3.35.51a31.96,31.96,0,0,1-3.05,1.84l-.239.111A17.471,17.471,0,0,1,17.47,32.68Zm8.63-1.1h-.83l-1.7-.09c-1.08-.08-2.19-.2-3.31-.38l-1.64-.3-.64-.13c-.71-.14-1.36-.311-2-.48l-1.45-.42c-.98-.3-1.931-.64-2.831-1-.44-.2-.97-.4-1.44-.61-.82-.38-1.61-.77-2.35-1.19l-.39-.23-1-.6a21.8,21.8,0,0,1-1.8-1.34c-.319-.25-.619-.51-.91-.77A13.638,13.638,0,0,1,1.52,21.47,7.719,7.719,0,0,1,0,17.14a6.083,6.083,0,0,1,.131-1.27,6.421,6.421,0,0,1,1.72-3.09A10.248,10.248,0,0,1,5.07,10.61a18.05,18.05,0,0,1,3.11-1c-.13.75-.221,1.54-.28,2.35l-.18.05A9.829,9.829,0,0,0,3.46,14.33a4.192,4.192,0,0,0-1.149,2,3.572,3.572,0,0,0-.08.8,5.5,5.5,0,0,0,1.1,3.11,11.171,11.171,0,0,0,1.38,1.64,11.21,11.21,0,0,0,.851.79c.34.29.7.58,1.08.859a5.924,5.924,0,0,0,.73.5,11.249,11.249,0,0,1,1,.6,8.093,8.093,0,0,0,1,.609c.43.23.89.471,1.36.69a27.569,27.569,0,0,0,2.71,1.15l1.371.47a36.4,36.4,0,0,0,3.64,1c.97.211,1.87.37,2.87.5a11.66,11.66,0,0,0,1.58.19c1.1.11,2.17.17,3.229.17.581,0,1.14-.05,1.69-.05h.29c-.1.78-.229,1.53-.39,2.22Zm6.5-3.05h.18A9.938,9.938,0,0,0,37.04,26.2a3.82,3.82,0,0,0,1.229-2.83,5.632,5.632,0,0,0-1.1-3.11,11.658,11.658,0,0,0-1.38-1.64c.35-.73.65-1.45.91-2.16a14.321,14.321,0,0,1,2.29,2.569,7.719,7.719,0,0,1,1.481,4.38,5.429,5.429,0,0,1-.14,1.27,6.317,6.317,0,0,1-1.71,3.1,10.445,10.445,0,0,1-3.2,2.09,17.112,17.112,0,0,1-3.1,1C32.441,30.12,32.531,29.33,32.6,28.53Zm-6.52-.24c-.661,0-1.31-.03-2.03-.04.71-.65,1.39-1.3,2.12-2a28.236,28.236,0,0,0,2-2.13,19.522,19.522,0,0,1,.07,2v1.25l-.45.47-.47.45ZM10.27,24.47c-.17-.63-.33-1.28-.48-1.94-.04-.21-.08-.419-.13-.64.53-.9,1.13-1.8,1.78-2.69.13.94.29,1.89.49,2.86.29,1.26.619,2.471,1,3.641C12,25.32,11.11,24.91,10.27,24.47Zm5.26-4.214a4.71,4.71,0,1,1,4.713,4.7A4.71,4.71,0,0,1,15.53,20.256ZM7.26,22.58a15.779,15.779,0,0,1-1.23-1l.12-.24a32.079,32.079,0,0,1,1.831-3c.329-.46.65-.931,1-1.39.65-.86,1.35-1.72,2.11-2.56q.54-.61,1.191-1.29c.149-.15.3-.3.45-.461s.31-.3.46-.45c.41-.4.82-.779,1.229-1.149.841-.751,1.7-1.45,2.561-2.1.47-.36.93-.679,1.4-1a30.651,30.651,0,0,1,3-1.83l.239-.12A17.475,17.475,0,0,1,23.01,7.76c-.211.1-.41.19-.61.3l-.71.39c-.44.27-.96.55-1.44.859-.88.571-1.77,1.2-2.65,1.89-.41.311-.82.651-1.23,1-.72.65-1.41,1.3-2.13,2s-1.38,1.409-2,2.129c-.34.41-.67.821-1,1.23-.69.88-1.32,1.77-1.88,2.64-.31.45-.6.97-.87,1.451-.13.229-.28.509-.39.709s-.2.4-.3.59C7.62,22.83,7.43,22.71,7.26,22.58Zm24.73-3.8c.139-.24.3-.52.4-.72s.12-.27.29-.59.33-.66.48-1a20.207,20.207,0,0,0,.78-2.12c.121-.38.221-.76.3-1.13a11.383,11.383,0,0,0,.281-2.34,6.406,6.406,0,0,0-.36-2.07A3.936,3.936,0,0,0,33.23,7.3a4.113,4.113,0,0,0-1.52-.94,6.349,6.349,0,0,0-2.1-.32,10.7,10.7,0,0,0-2.35.28,17.38,17.38,0,0,0-1.08-1.61l-.25-.329a13.987,13.987,0,0,1,3.68-.54,8.534,8.534,0,0,1,2.84.45,6.232,6.232,0,0,1,2.33,1.45,6.071,6.071,0,0,1,1.45,2.34,8.511,8.511,0,0,1,.46,2.84,14.47,14.47,0,0,1-.55,3.67c-.1.38-.221.76-.35,1.14-.24.7-.53,1.42-.86,2.14-.16.3-.319.65-.5,1l-.121.239a32.014,32.014,0,0,1-1.81,3.02C32.39,21.02,32.21,19.9,31.991,18.78Zm-.81-3.51c-.33-1-.651-1.94-1-2.94.831.38,1.61.77,2.361,1.19l.39.23a17.477,17.477,0,0,1-.75,2.12C31.84,15.67,31.52,15.46,31.181,15.27Zm-9.13-3.34c-.97-.211-1.92-.371-2.86-.5a31.547,31.547,0,0,1,2.7-1.78l.63.13c.661.18,1.3.339,1.95.49a28.038,28.038,0,0,1,1.219,2.66A34.917,34.917,0,0,0,22.05,11.93Zm-9.66-.76a19.962,19.962,0,0,1,.39-2.22c.53-.05,1.07-.05,1.62-.05l.83.04c-.869.7-1.73,1.45-2.56,2.23Z"
     transform="translate(0)"
     style="stroke:none;stroke-opacity:1;fill:#ffffff;fill-opacity:1"
     inkscape:export-filename="D:\Dev\Repositories\bullet-box\Bullet Box\Assets\Gameplay\temp_special_icon.png"
     inkscape:export-xdpi="608.03088"
     inkscape:export-ydpi="608.03088" />
</svg>
